<svg xmlns="http://www.w3.org/2000/svg" width="34.725" height="36" viewBox="0 0 34.725 36">
  <g id="icon" transform="translate(0 -0.012)">
    <path id="_3" data-name="3" d="M10.464,157.18v6.81c0,.126,0,.249-.008.369a5.482,5.482,0,0,1-.056.575c-.257,1.752-1.312,2.141-3.285,2.141H0V157.18Z" transform="translate(0 -131.062)" fill="#00203f"/>
    <path id="_2" data-name="2" d="M0,107.546V97.66H20.917v7.391a3.043,3.043,0,0,1-.369,1.611,2.091,2.091,0,0,1-1.922.884Z" transform="translate(0 -81.428)" fill="#15aacc"/>
    <path id="_1" data-name="1" d="M3.9,4.8A13.409,13.409,0,0,1,7,2.444,17.326,17.326,0,0,1,10.95.869,25.953,25.953,0,0,1,16.9.039C18.15,0,34.5.005,34.733.039c.027.9.042,1.722.05,2.491a.5.5,0,0,1,.008.073v1c0,5.227-.553,7.26-1.538,8.855-2.616,4.237-7.973,3.789-12.27,3.789H.08C.08,11.926.924,7.867,3.9,4.8Z" transform="translate(-0.067)" fill="#b7f6db"/>
  </g>
</svg>
